<?xml version="1.0" standalone="no"?>
<!DOCTYPE svg PUBLIC "-//W3C//DTD SVG 20010904//EN"
 "http://www.w3.org/TR/2001/REC-SVG-20010904/DTD/svg10.dtd">
<svg version="1.0" xmlns="http://www.w3.org/2000/svg"
 width="225.000000pt" height="225.000000pt" viewBox="0 0 225.000000 225.000000"
 preserveAspectRatio="xMidYMid meet">
<metadata>
Created by potrace 1.16, written by Peter Selinger 2001-2019
</metadata>
<g transform="translate(0.000000,225.000000) scale(0.100000,-0.100000)"
fill="#000000" stroke="none">
<path d="M0 1125 l0 -1125 1125 0 1125 0 0 1125 0 1125 -1125 0 -1125 0 0
-1125z m1142 766 c-3 -38 1 -59 18 -93 12 -23 26 -50 30 -58 4 -8 3 -25 -1
-38 -5 -13 -4 -22 1 -22 6 0 10 5 10 11 0 6 7 9 15 5 10 -4 15 1 15 14 0 27
14 25 37 -3 15 -20 31 -25 93 -30 183 -16 348 -109 425 -241 97 -165 99 -416
6 -611 -81 -169 -217 -268 -407 -296 -72 -11 -73 -12 -59 -32 14 -20 11 -62
-5 -81 -5 -4 -16 4 -26 19 -10 16 -42 38 -70 51 -29 13 -55 28 -59 33 -8 13
-45 15 -45 2 0 -5 7 -14 15 -21 21 -17 19 -30 -6 -30 -11 0 -34 14 -51 30 -17
17 -28 25 -25 17 6 -16 -12 -47 -19 -32 -26 59 -39 41 -20 -26 29 -95 13 -149
-41 -149 -20 0 -23 4 -18 21 5 14 -4 36 -28 73 -19 28 -37 62 -41 74 -4 12
-12 22 -17 22 -5 0 -9 11 -9 24 0 14 -4 28 -10 31 -5 3 -10 1 -10 -4 0 -6 -4
-11 -10 -11 -5 0 -10 12 -10 28 0 22 2 24 11 12 8 -12 9 -10 4 9 -5 17 -4 22
5 16 9 -5 11 -4 6 3 -14 23 -47 -10 -44 -43 4 -41 -22 -40 -43 1 -8 18 -23 39
-32 48 -15 15 -17 14 -26 -21 -5 -21 -12 -56 -16 -78 -8 -46 -59 -100 -105
-110 -38 -8 -60 3 -37 20 33 24 48 81 46 183 -1 57 -6 100 -12 104 -7 4 -7 11
2 22 18 22 37 20 20 -1 -13 -17 -13 -17 5 -3 11 8 22 14 25 13 3 -1 5 7 5 18
-1 13 9 25 30 36 17 9 25 18 18 20 -8 3 -5 11 10 24 17 15 12 14 -17 -4 -22
-13 -40 -30 -40 -37 0 -7 -6 -15 -14 -18 -9 -3 -11 0 -5 9 7 12 5 12 -9 0 -9
-7 -15 -17 -12 -21 2 -4 -7 -18 -20 -30 -25 -23 -35 -47 -15 -35 13 8 13 2 -2
-30 -6 -14 -16 -24 -22 -22 -19 6 -29 77 -18 116 7 22 8 39 2 45 -6 6 -5 15 3
25 11 14 10 14 -5 2 -10 -7 -15 -18 -11 -24 4 -6 0 -8 -9 -4 -9 3 -37 -5 -64
-19 -26 -13 -60 -24 -76 -24 -39 0 -87 26 -97 53 -13 33 -3 40 26 17 14 -11
34 -20 45 -20 24 0 113 83 105 97 -4 7 -29 9 -65 6 -39 -4 -69 -1 -95 10 -45
19 -48 37 -7 37 67 0 177 69 172 108 -4 24 -17 27 -56 12 -40 -15 -33 11 15
54 l40 37 -22 18 c-17 14 -19 20 -9 26 9 6 11 4 5 -5 -5 -9 -4 -11 3 -6 8 5 2
20 -21 48 -34 43 -73 68 -107 68 -24 0 -27 15 -4 24 30 12 89 5 132 -14 34
-16 42 -16 42 -5 0 20 10 19 36 -6 12 -12 28 -18 34 -14 20 12 -49 75 -82 75
-34 0 -36 13 -6 34 25 18 90 21 118 6 14 -7 18 -6 16 5 -4 25 -47 64 -112 100
-64 36 -114 85 -114 111 0 21 19 54 30 54 6 0 10 -7 10 -15 0 -22 58 -63 143
-100 43 -18 85 -39 93 -46 22 -18 47 -21 41 -4 -3 7 -1 17 4 22 7 7 1 23 -15
48 -25 36 -36 105 -17 105 5 0 16 -11 24 -24 17 -26 84 -69 90 -58 12 21 16
42 7 37 -5 -3 -14 3 -20 14 -6 12 -6 22 -1 26 6 3 2 23 -9 48 -28 64 -33 100
-17 122 14 18 16 16 34 -26 20 -44 53 -82 53 -60 0 6 7 11 15 11 8 0 15 -6 15
-13 0 -7 7 -22 16 -33 15 -18 15 -18 9 9 -5 23 -2 30 13 34 11 2 25 16 31 29
13 29 31 31 38 4 4 -14 11 -19 23 -15 11 4 20 -3 28 -20 6 -14 16 -25 22 -25
5 0 10 -5 10 -11 0 -8 -6 -7 -17 2 -15 11 -16 11 -6 -1 7 -8 20 -15 29 -16 12
-2 14 3 10 22 -4 13 -3 24 1 23 26 -4 33 4 33 37 0 37 12 66 38 97 28 31 39
21 34 -32z"/>
<path d="M1104 1899 c-16 -18 -19 -36 -18 -103 1 -53 -1 -71 -6 -51 -6 24 -7
21 -4 -13 3 -33 -1 -47 -18 -64 l-22 -22 -18 44 c-10 24 -34 60 -53 82 -19 21
-35 45 -35 53 0 8 -4 15 -10 15 -5 0 -10 -10 -10 -22 0 -12 3 -18 7 -15 5 6
33 -36 33 -49 0 -10 -26 3 -32 16 -14 31 -8 -16 7 -60 16 -46 19 -123 5 -155
-5 -11 -9 -14 -9 -6 -1 8 -8 19 -17 25 -8 6 -20 32 -25 56 -5 25 -12 53 -15
64 -4 11 -2 16 4 12 6 -3 13 -2 17 3 3 6 -3 8 -15 6 -23 -5 -35 9 -39 48 -1 9
-3 9 -9 0 -11 -17 -75 50 -90 92 -10 29 -10 29 -11 -15 0 -29 2 -40 8 -31 7
11 12 9 22 -10 7 -13 14 -26 15 -29 0 -3 13 -30 27 -61 15 -31 32 -82 38 -115
8 -38 21 -69 38 -88 23 -25 24 -28 6 -24 -24 4 -62 70 -70 123 -7 42 -55 159
-62 151 -2 -2 5 -23 17 -46 12 -23 19 -48 16 -56 -4 -10 -2 -12 6 -8 7 5 9 -1
4 -20 -4 -15 -2 -26 4 -26 5 0 10 -9 10 -20 0 -11 -4 -20 -10 -20 -5 0 -10 8
-10 17 0 9 -3 13 -6 10 -4 -3 -15 5 -26 18 -11 14 -25 25 -31 25 -6 0 -26 14
-44 32 -30 29 -33 30 -33 11 0 -11 19 -49 42 -83 49 -74 68 -151 35 -144 -22
4 -32 12 -32 25 0 5 -3 8 -7 7 -4 -2 -24 14 -45 34 -23 22 -69 49 -113 67 -51
21 -87 43 -113 70 l-37 40 0 -39 c0 -44 20 -63 118 -115 45 -25 172 -143 163
-154 -1 -2 3 -8 11 -12 9 -6 9 -9 1 -9 -6 0 -15 5 -18 10 -4 6 -10 8 -15 5 -5
-3 -11 -1 -15 5 -11 18 -83 50 -113 50 -15 0 -37 -7 -48 -15 -19 -14 -19 -14
2 -15 11 0 33 -14 50 -31 16 -18 56 -49 89 -71 l60 -39 -50 5 c-27 3 -58 6
-67 6 -10 1 -17 6 -15 12 1 6 -7 12 -18 13 -11 2 -47 15 -80 29 -33 14 -78 25
-100 25 -38 -1 -39 -1 -11 -9 24 -8 174 -140 184 -162 2 -5 -6 -8 -18 -8 -26
0 -70 -22 -92 -46 -16 -18 -14 -19 54 -19 47 0 73 -4 75 -12 3 -7 20 -15 39
-19 51 -9 30 -24 -35 -24 -51 0 -65 -5 -119 -41 -43 -29 -76 -43 -109 -47 -39
-4 -43 -6 -25 -13 21 -8 45 0 146 49 5 3 6 0 2 -6 -4 -6 10 -4 31 5 28 11 58
14 115 10 59 -4 81 -1 98 10 20 14 22 14 18 -3 -3 -17 -14 -19 -108 -19 -58 0
-111 -4 -119 -9 -8 -5 -44 -19 -80 -32 -61 -22 -63 -24 -29 -24 20 0 49 5 64
10 19 8 31 7 43 -2 15 -12 15 -11 1 6 -14 18 -13 19 3 13 12 -5 16 -3 11 5 -5
8 2 9 22 4 21 -5 25 -4 14 4 -12 7 -8 10 18 10 17 0 32 -4 32 -9 0 -5 10 -12
23 -15 12 -2 5 -4 -15 -2 -20 1 -35 -1 -32 -5 2 -4 -8 -10 -21 -13 -23 -6
-151 -126 -135 -126 13 0 90 60 102 80 7 11 17 20 22 20 4 0 2 -8 -5 -17 -13
-16 -12 -17 3 -4 10 7 16 17 13 21 -9 14 14 22 87 30 43 5 76 14 88 25 13 11
20 14 20 6 0 -7 -15 -18 -32 -26 -18 -8 -27 -14 -20 -15 7 0 22 5 33 10 24 13
49 1 25 -12 -9 -5 -55 -15 -103 -23 -56 -9 -96 -21 -113 -35 -57 -46 -101 -73
-132 -80 -31 -7 -31 -8 -6 -9 15 -1 61 17 103 39 42 22 81 37 87 34 7 -4 8 -2
4 4 -9 15 62 28 76 14 7 -7 4 -12 -10 -16 -12 -4 -35 -23 -51 -42 -27 -30 -31
-43 -31 -90 0 -33 4 -53 10 -49 5 3 7 18 4 33 -7 40 27 86 93 128 32 20 67 47
79 61 l21 24 0 -30 c0 -17 -4 -31 -9 -31 -5 0 -6 5 -2 12 5 7 3 8 -5 4 -7 -5
-10 -11 -7 -14 3 -3 -1 -14 -11 -24 -9 -10 -12 -18 -8 -18 4 0 0 -9 -10 -20
-18 -20 -18 -21 1 -14 17 7 17 6 5 -9 -9 -12 -17 -14 -26 -7 -8 7 -12 5 -12
-5 0 -8 4 -12 9 -9 15 9 8 -13 -8 -27 -33 -27 -54 -87 -54 -151 0 -35 4 -69 9
-76 4 -7 7 12 5 45 -2 56 -2 57 5 13 6 -36 8 -39 10 -15 2 57 22 106 59 148
l36 42 -38 -35 c-21 -19 -44 -48 -52 -65 -7 -16 -13 -23 -14 -15 0 20 26 57
67 93 23 20 38 47 49 86 9 31 21 61 26 66 15 15 0 -65 -18 -92 -20 -31 -18
-39 5 -19 11 10 25 31 31 47 7 16 16 29 20 29 5 0 40 -20 80 -44 40 -25 78
-42 86 -39 8 3 21 -3 29 -13 8 -11 14 -14 15 -6 0 17 20 15 20 -3 0 -8 7 -15
15 -15 9 0 12 6 9 15 -4 8 -3 15 0 15 4 0 11 -10 16 -22 9 -23 9 -23 10 2 l1
25 15 -25 15 -25 -5 25 c-5 24 -4 24 9 6 8 -11 15 -23 15 -28 0 -4 7 -8 16 -8
15 0 15 2 0 25 -18 28 -20 35 -7 35 5 0 14 -14 20 -32 6 -17 14 -29 17 -25 3
3 1 14 -5 25 -14 25 -14 32 -1 32 5 0 14 -15 20 -32 10 -33 10 -33 4 5 -3 26
-2 37 5 32 6 -3 11 -19 11 -36 0 -25 4 -29 28 -29 42 0 44 9 12 48 -29 36 -31
52 -4 52 8 0 14 -8 14 -18 0 -10 6 -27 14 -38 13 -17 13 -14 3 23 -8 33 -8 46
1 55 9 9 12 4 12 -26 0 -40 14 -76 30 -76 5 0 9 10 7 23 -1 12 3 21 10 20 7
-2 10 6 8 17 -3 16 2 20 26 20 17 0 39 -5 50 -10 10 -6 19 -7 19 -2 0 16 -25
32 -51 32 -43 0 -89 12 -89 22 0 6 15 8 38 4 29 -4 32 -4 15 4 -13 5 -23 14
-23 20 0 22 39 8 81 -29 45 -39 51 -39 73 -2 6 9 5 12 -2 7 -6 -3 -21 8 -33
26 -13 18 -17 28 -9 22 8 -6 25 -10 38 -8 14 2 21 0 17 -6 -3 -6 1 -7 10 -4
28 11 11 27 -44 41 -68 17 -101 36 -51 30 34 -5 34 -5 8 6 -16 6 -28 15 -28
20 0 12 41 -2 65 -23 38 -32 50 -33 20 -1 -16 17 -40 34 -52 37 -13 4 -20 10
-17 15 6 11 40 -5 71 -34 25 -22 43 -16 23 8 -7 8 -10 21 -7 29 3 7 0 13 -6
13 -36 -1 -46 4 -40 19 5 13 2 15 -17 9 -30 -9 -23 16 8 30 27 12 28 25 2 25
-11 0 -20 6 -20 14 0 8 8 12 23 9 17 -3 25 2 34 26 12 34 8 36 -32 21 -14 -5
-24 -6 -21 -1 4 5 0 11 -6 14 -7 3 3 12 22 21 l35 17 -32 -4 c-18 -2 -33 0
-33 5 0 11 53 10 86 -2 35 -14 41 -7 15 19 -12 12 -21 28 -21 36 0 13 -9 10
-45 -11 -25 -14 -45 -21 -45 -15 0 6 6 11 13 11 7 0 22 7 33 15 17 13 16 14
-14 4 -18 -6 -36 -9 -39 -5 -10 10 3 17 41 20 40 4 49 9 52 31 2 10 -6 9 -29
-6 -34 -20 -77 -25 -77 -9 0 6 13 10 29 10 40 0 79 33 66 55 -10 17 -26 21
-24 8 1 -5 6 -7 12 -5 6 2 4 -5 -6 -16 -10 -11 -30 -19 -45 -19 -15 0 -21 2
-14 4 6 3 10 8 7 13 -3 5 8 18 25 30 17 12 27 26 24 31 -4 6 -14 3 -25 -7 -10
-9 -19 -14 -19 -10 0 3 -11 -1 -25 -10 -14 -9 -23 -19 -21 -22 3 -3 14 1 23 9
15 11 15 10 -1 -9 -18 -21 -43 -32 -32 -14 3 5 -6 15 -19 22 -27 14 -29 19
-17 36 10 16 67 44 88 44 15 0 15 3 -4 21 -12 11 -27 17 -34 13 -7 -5 -8 -3
-3 6 5 9 4 11 -4 6 -6 -4 -9 -12 -5 -17 3 -6 -10 -26 -30 -45 -31 -30 -36 -32
-36 -15 0 11 8 27 17 37 13 13 14 16 3 12 -8 -2 -20 -15 -26 -27 -7 -14 -14
-19 -18 -12 -10 15 16 49 54 73 l32 19 38 -26 c65 -45 110 -124 110 -193 0
-25 8 -44 26 -64 l27 -27 -31 -29 c-28 -27 -48 -73 -54 -132 -3 -22 1 -25 30
-28 34 -3 39 -11 20 -30 -10 -10 -10 -17 0 -32 7 -12 8 -21 2 -25 -6 -4 -5
-16 4 -33 14 -28 11 -56 -5 -47 -5 4 -6 0 -3 -8 7 -18 -94 -110 -113 -103 -8
3 -12 2 -9 -3 3 -5 -18 -19 -47 -32 -62 -28 -187 -37 -269 -20 -58 12 -179 66
-229 102 -47 33 -52 18 -14 -38 102 -152 233 -215 450 -216 166 -1 276 39 382
137 118 110 174 250 176 446 2 130 -11 195 -55 284 -114 226 -458 332 -705
216 -36 -16 -76 -39 -91 -51 l-27 -22 25 7 c122 34 219 30 311 -12 l44 -20
-33 -12 c-19 -7 -42 -27 -53 -44 -16 -27 -19 -28 -19 -9 0 12 14 33 31 47 25
21 28 27 15 32 -9 3 -24 0 -34 -7 -16 -13 -16 -12 -2 5 13 17 13 18 -4 15 -12
-3 -23 -18 -31 -44 -7 -26 -13 -35 -17 -25 -4 9 -7 10 -7 3 -1 -19 -31 -3 -31
16 0 10 7 26 16 37 15 18 15 18 5 -3 -6 -12 -11 -28 -11 -35 1 -10 30 46 30
57 0 2 -13 5 -30 7 -28 4 -30 3 -30 -29 0 -18 -4 -33 -10 -33 -5 0 -10 11 -10
24 0 14 -4 27 -8 30 -5 3 -6 -9 -4 -26 3 -21 1 -29 -7 -24 -6 4 -11 15 -12 24
0 14 -2 13 -9 -3 -7 -18 -9 -17 -16 10 l-8 30 -7 -30 c-5 -24 -7 -25 -8 -7 -1
13 -7 22 -16 22 -13 0 -14 -4 -5 -20 13 -25 -5 -27 -19 -2 -10 16 -10 15 -11
-3 0 -15 -2 -17 -9 -6 -7 11 -11 10 -19 -5 -7 -12 -8 7 -5 67 4 64 1 93 -11
123 -20 47 -20 45 1 42 27 -4 52 -45 59 -96 l6 -49 28 14 c33 17 64 104 66
185 1 76 4 90 14 60 7 -21 8 -19 9 18 1 23 -1 42 -2 42 -2 0 -12 -10 -23 -21z
m330 -265 c156 -40 279 -133 341 -256 19 -39 35 -77 35 -84 0 -16 -27 -8 -55
16 -41 36 -84 50 -148 50 -56 0 -67 3 -80 23 -13 18 -16 19 -16 5 -1 -25 16
-32 97 -39 59 -5 78 -11 100 -31 15 -14 46 -35 68 -46 32 -16 43 -28 48 -53
24 -120 -32 -377 -90 -415 -13 -9 -24 -24 -24 -33 0 -9 -5 -23 -10 -31 -8 -12
-10 -9 -10 13 0 25 24 60 48 68 6 2 18 21 27 42 9 22 11 36 6 32 -6 -3 -11
-13 -11 -21 0 -8 -18 -32 -40 -54 -22 -22 -40 -49 -40 -60 0 -40 -28 -77 -72
-95 -24 -9 -56 -29 -73 -44 -46 -43 -84 -51 -249 -51 -150 0 -200 5 -191 20 3
4 -9 10 -26 14 -20 4 -28 10 -23 18 5 8 2 9 -9 5 -21 -8 -72 13 -56 23 6 4 0
10 -16 14 -18 5 -25 12 -21 22 3 8 1 12 -4 9 -5 -3 -18 -1 -27 4 -13 8 -14 10
-4 11 11 0 9 4 -5 15 -10 8 4 4 31 -9 28 -13 78 -32 112 -41 35 -10 61 -21 58
-25 -2 -3 55 1 127 11 97 13 138 23 159 38 31 23 39 26 39 11 0 -20 -56 -45
-115 -51 l-60 -7 60 2 c33 1 69 6 80 10 20 8 20 7 1 -8 -11 -9 -15 -16 -9 -16
12 0 31 20 32 35 1 6 7 10 14 10 6 0 11 9 9 19 -2 10 1 15 6 12 5 -3 15 1 21
8 9 11 9 16 0 22 -8 5 -9 3 -4 -6 6 -9 4 -11 -5 -5 -8 5 -11 4 -7 -2 3 -5 0
-10 -8 -10 -23 0 -18 10 21 37 85 61 84 59 84 104 0 23 -5 47 -12 54 -9 9 -7
13 6 18 16 6 16 7 0 19 -15 11 -14 13 10 19 15 4 31 4 37 0 5 -3 16 0 24 6 8
6 18 9 24 6 5 -3 19 -2 32 2 l23 9 -22 5 c-14 4 -20 2 -15 -5 4 -7 0 -8 -13
-2 -10 5 -38 9 -62 10 -35 0 -40 2 -26 12 18 13 12 43 -8 43 -10 0 -10 -2 1
-9 24 -16 2 -30 -37 -24 -20 3 -38 7 -39 8 -3 2 17 61 34 103 8 18 21 36 28
38 25 10 25 35 0 78 -14 24 -25 52 -25 63 0 70 -62 166 -139 214 -25 16 -40
29 -35 29 18 0 120 -78 138 -104 9 -15 22 -26 29 -26 6 0 23 -9 37 -20 15 -12
39 -19 60 -19 30 1 32 2 10 8 -46 11 -94 43 -136 90 -44 49 -130 99 -193 112
-33 8 -32 8 10 4 60 -6 129 -36 176 -78 21 -19 61 -49 90 -66 43 -27 56 -30
73 -21 29 16 25 32 -5 18 -23 -10 -32 -7 -83 30 -31 23 -78 56 -105 73 -26 18
-45 34 -42 37 2 2 47 -23 100 -57 60 -40 104 -61 118 -59 18 2 13 8 -28 29
-27 14 -73 40 -102 58 -30 19 -67 34 -90 36 -57 4 -103 16 -98 26 3 4 -16 10
-42 12 -31 2 -18 4 36 5 49 1 108 -4 145 -14z m-298 -169 c63 -19 152 -81 188
-133 66 -96 87 -234 52 -340 -22 -66 -100 -153 -170 -190 -45 -24 -62 -27
-141 -27 -78 1 -98 5 -150 30 -149 72 -242 240 -215 388 23 120 112 234 212
268 65 22 157 24 224 4z"/>
<path d="M1792 1043 c-1 -19 -11 -40 -22 -50 -11 -10 -49 -47 -85 -83 -48 -49
-65 -74 -70 -102 -5 -27 -18 -46 -47 -70 -22 -18 -64 -57 -94 -85 l-54 -53
-87 -1 c-49 -1 -113 -4 -143 -8 -34 -5 -3 -6 85 -4 180 4 180 4 215 38 29 27
44 24 18 -4 -11 -11 -10 -12 1 -6 8 4 21 15 30 22 9 8 36 27 61 42 39 24 48
36 63 84 12 37 24 58 37 62 11 4 27 21 36 38 9 18 26 43 38 56 l21 24 -22 -12
c-14 -7 -23 -8 -23 -2 0 6 12 17 28 25 21 12 23 15 8 16 -18 0 -18 1 -2 19 12
13 16 30 13 53 l-4 33 -1 -32z"/>
</g>
</svg>
